<?xml version="1.0" encoding="utf-8" standalone="no"?>
<!DOCTYPE svg PUBLIC "-//W3C//DTD SVG 1.1//EN"
  "http://www.w3.org/Graphics/SVG/1.1/DTD/svg11.dtd">
<svg xmlns:xlink="http://www.w3.org/1999/xlink" width="319.914437pt" height="286.2pt" viewBox="0 0 319.914437 286.2" xmlns="http://www.w3.org/2000/svg" version="1.1">
 <metadata>
  <rdf:RDF xmlns:dc="http://purl.org/dc/elements/1.1/" xmlns:cc="http://creativecommons.org/ns#" xmlns:rdf="http://www.w3.org/1999/02/22-rdf-syntax-ns#">
   <cc:Work>
    <dc:type rdf:resource="http://purl.org/dc/dcmitype/StillImage"/>
    <dc:date>2023-10-19T20:45:42.403739</dc:date>
    <dc:format>image/svg+xml</dc:format>
    <dc:creator>
     <cc:Agent>
      <dc:title>Matplotlib v3.5.1, https://matplotlib.org/</dc:title>
     </cc:Agent>
    </dc:creator>
   </cc:Work>
  </rdf:RDF>
 </metadata>
 <defs>
  <style type="text/css">*{stroke-linejoin: round; stroke-linecap: butt}</style>
 </defs>
 <g id="figure_1">
  <g id="patch_1">
   <path d="M 0 286.2 
L 319.914437 286.2 
L 319.914437 0 
L 0 0 
z
" style="fill: #ffffff"/>
  </g>
  <g id="axes_1">
   <g id="patch_2">
    <path d="M 152.270764 31.5 
C 130.852387 31.5 109.880098 37.665953 91.869881 49.258147 
C 73.859665 60.850341 59.56173 77.385907 50.69136 96.881122 
C 41.820989 116.376337 38.747675 138.019133 41.840114 159.213087 
C 44.932553 180.407041 54.06193 200.269326 68.133021 216.41712 
L 97.581231 190.756128 
C 88.435022 180.260062 82.500927 167.349577 80.490841 153.573506 
C 78.480756 139.797436 80.47841 125.729619 86.244151 113.057729 
C 92.009892 100.38584 101.303549 89.637722 113.01019 82.102796 
C 124.716831 74.567869 138.348819 70.56 152.270764 70.56 
L 152.270764 31.5 
z
" style="fill: #e953ad; stroke: #ffffff; stroke-linejoin: miter"/>
   </g>
   <g id="patch_3">
    <path d="M 68.133021 216.41712 
C 80.402191 230.497056 96.011614 241.274565 113.525545 247.758339 
C 131.039476 254.242114 149.903959 256.227076 168.383851 253.53065 
C 186.863743 250.834224 204.374534 243.541696 219.305595 232.323828 
C 234.236655 221.10596 246.115722 206.317568 253.850168 189.318878 
C 261.584614 172.320188 264.929801 153.648859 263.578042 135.022269 
C 262.226284 116.395679 256.220334 98.402976 246.112617 82.699117 
C 236.0049 66.995259 222.115117 54.07695 205.720841 45.132407 
C 189.326565 36.187865 170.946339 31.5 152.270764 31.5 
L 152.270764 70.56 
C 164.409888 70.56 176.357035 73.607112 187.013314 79.421065 
C 197.669593 85.235017 206.697952 93.631918 213.267968 103.839426 
C 219.837985 114.046934 223.741852 125.742191 224.620495 137.849475 
C 225.499138 149.956759 223.324766 162.093122 218.297377 173.142271 
C 213.269987 184.191419 205.548593 193.803874 195.843404 201.095488 
C 186.138215 208.387102 174.7562 213.127245 162.74427 214.879922 
C 150.732341 216.632599 138.470427 215.342374 127.086372 211.127921 
C 115.702316 206.913467 105.556192 199.908086 97.581231 190.756128 
L 68.133021 216.41712 
z
" style="fill: #a385db; stroke: #ffffff; stroke-linejoin: miter"/>
   </g>
   <g id="patch_4">
    <path d="M 152.270764 70.56 
C 138.348819 70.56 124.716831 74.567869 113.01019 82.102796 
C 101.303549 89.637722 92.009892 100.38584 86.244151 113.057729 
C 80.47841 125.729619 78.480756 139.797436 80.490841 153.573506 
C 82.500927 167.349577 88.435022 180.260062 97.581231 190.756128 
L 127.029441 165.095136 
C 122.808114 160.250798 120.069301 154.292112 119.141569 147.933926 
C 118.213837 141.57574 119.135832 135.082901 121.796943 129.234337 
C 124.458054 123.385772 128.747434 118.425102 134.150499 114.947444 
C 139.553564 111.469786 145.845251 109.62 152.270764 109.62 
L 152.270764 70.56 
z
" style="fill: #efa9cd; stroke: #ffffff; stroke-linejoin: miter"/>
   </g>
   <g id="patch_5">
    <path d="M 97.581231 190.756128 
C 105.936099 200.344063 116.667266 207.568402 128.694229 211.701739 
C 140.721193 215.835076 153.626276 216.733868 166.110091 214.307616 
C 178.593905 211.881365 190.222909 206.21433 199.826198 197.877114 
C 209.429488 189.539899 216.673556 178.822041 220.829013 166.802703 
L 183.913033 154.039709 
C 181.99513 159.587096 178.651713 164.5338 174.219426 168.381745 
C 169.787139 172.229691 164.419906 174.845245 158.658146 175.965054 
C 152.896385 177.084862 146.940193 176.670035 141.389286 174.762341 
C 135.83838 172.854647 130.885534 169.520337 127.029441 165.095136 
L 97.581231 190.756128 
z
" style="fill: #ffdd99; stroke: #ffffff; stroke-linejoin: miter"/>
   </g>
   <g id="patch_6">
    <path d="M 220.829013 166.802703 
C 224.606828 155.875661 225.718085 144.20214 224.069833 132.758566 
C 222.421581 121.314992 218.061094 110.429582 211.353103 101.012843 
C 204.645113 91.596104 195.782012 83.918119 185.505153 78.621112 
C 175.228294 73.324105 163.83243 70.56 152.270764 70.56 
L 152.270764 109.62 
C 157.606917 109.62 162.866547 110.895741 167.609713 113.340513 
C 172.352878 115.785286 176.44354 119.328971 179.539536 123.675158 
C 182.635532 128.021346 184.648064 133.045381 185.408796 138.32703 
C 186.169528 143.60868 185.65664 148.996459 183.913033 154.039709 
L 220.829013 166.802703 
z
" style="fill: #0a888a; stroke: #ffffff; stroke-linejoin: miter"/>
   </g>
   <g id="matplotlib.axis_1"/>
   <g id="matplotlib.axis_2"/>
   <g id="text_1">
    <!-- Benign -->
    <g transform="translate(7.2 94.99896)scale(0.11 -0.11)">
     <defs>
      <path id="CMR17-42" d="M 333 4352 
L 333 4185 
C 774 4185 845 4185 845 3897 
L 845 451 
C 845 166 774 166 333 166 
L 333 0 
L 2534 0 
C 3354 0 3885 578 3885 1155 
C 3885 1726 3360 2214 2675 2259 
C 3290 2380 3718 2790 3718 3276 
C 3718 3808 3194 4352 2368 4352 
L 333 4352 
z
M 1248 2304 
L 1248 3936 
C 1248 4153 1261 4185 1517 4185 
L 2336 4185 
C 2970 4185 3251 3673 3251 3276 
C 3251 2790 2861 2304 2170 2304 
L 1248 2304 
z
M 1517 166 
C 1261 166 1248 198 1248 413 
L 1248 2201 
L 2432 2201 
C 3091 2201 3411 1624 3411 1161 
C 3411 698 3046 166 2349 166 
L 1517 166 
z
" transform="scale(0.015625)"/>
      <path id="CMR17-65" d="M 2438 1503 
C 2464 1529 2464 1542 2464 1606 
C 2464 2251 2118 2816 1389 2816 
C 710 2816 173 2175 173 1394 
C 173 554 781 -64 1459 -64 
C 2176 -64 2458 619 2458 755 
C 2458 800 2419 800 2406 800 
C 2362 800 2355 787 2330 709 
C 2189 270 1837 51 1504 51 
C 1229 51 954 206 781 490 
C 582 819 582 1200 582 1503 
L 2438 1503 
z
M 589 1600 
C 634 2511 1126 2713 1382 2713 
C 1818 2713 2112 2308 2118 1600 
L 589 1600 
z
" transform="scale(0.015625)"/>
      <path id="CMR17-6e" d="M 2656 1954 
C 2656 2282 2592 2816 1837 2816 
C 1331 2816 1069 2424 973 2166 
L 966 2166 
L 966 2816 
L 211 2745 
L 211 2578 
C 589 2578 646 2540 646 2231 
L 646 443 
C 646 198 621 166 211 166 
L 211 0 
C 365 12 646 12 813 12 
C 979 12 1267 12 1421 0 
L 1421 166 
C 1011 166 986 192 986 443 
L 986 1678 
C 986 2269 1344 2713 1792 2713 
C 2266 2713 2317 2289 2317 1980 
L 2317 443 
C 2317 198 2291 166 1882 166 
L 1882 0 
C 2035 12 2317 12 2483 12 
C 2650 12 2938 12 3091 0 
L 3091 166 
C 2682 166 2656 192 2656 443 
L 2656 1954 
z
" transform="scale(0.015625)"/>
      <path id="CMR17-69" d="M 992 3961 
C 992 4102 877 4224 730 4224 
C 589 4224 467 4108 467 3961 
C 467 3820 582 3699 730 3699 
C 870 3699 992 3814 992 3961 
z
M 243 2745 
L 243 2579 
C 602 2579 653 2540 653 2231 
L 653 443 
C 653 198 627 166 218 166 
L 218 0 
C 371 12 646 12 806 12 
C 960 12 1222 12 1370 0 
L 1370 166 
C 992 166 979 205 979 436 
L 979 2816 
L 243 2745 
z
" transform="scale(0.015625)"/>
      <path id="CMR17-67" d="M 710 1165 
C 832 1068 1043 960 1299 960 
C 1805 960 2240 1359 2240 1895 
C 2240 2063 2189 2321 1997 2521 
C 2176 2713 2438 2777 2586 2777 
C 2611 2777 2650 2777 2682 2758 
C 2656 2751 2598 2726 2598 2623 
C 2598 2540 2656 2483 2739 2483 
C 2835 2483 2886 2547 2886 2630 
C 2886 2751 2790 2880 2586 2880 
C 2330 2880 2106 2758 1926 2591 
C 1734 2764 1504 2828 1299 2828 
C 794 2828 358 2431 358 1895 
C 358 1527 570 1294 634 1230 
C 442 1004 442 742 442 710 
C 442 544 506 300 723 166 
C 390 82 128 -184 128 -517 
C 128 -996 736 -1344 1466 -1344 
C 2170 -1344 2803 -1009 2803 -510 
C 2803 384 1856 384 1363 384 
C 1216 384 954 384 922 390 
C 723 422 589 601 589 825 
C 589 883 589 1024 710 1165 
z
M 1299 1068 
C 736 1068 736 1766 736 1895 
C 736 2024 736 2719 1299 2719 
C 1862 2719 1862 2024 1862 1895 
C 1862 1766 1862 1068 1299 1068 
z
M 1466 -1236 
C 826 -1236 384 -883 384 -517 
C 384 -311 493 -118 634 -11 
C 794 102 858 102 1293 102 
C 1818 102 2547 102 2547 -517 
C 2547 -883 2106 -1236 1466 -1236 
z
" transform="scale(0.015625)"/>
     </defs>
     <use xlink:href="#CMR17-42" transform="scale(0.996264)"/>
     <use xlink:href="#CMR17-65" transform="translate(65.188754 0)scale(0.996264)"/>
     <use xlink:href="#CMR17-6e" transform="translate(105.674415 0)scale(0.996264)"/>
     <use xlink:href="#CMR17-69" transform="translate(156.569785 0)scale(0.996264)"/>
     <use xlink:href="#CMR17-67" transform="translate(181.440843 0)scale(0.996264)"/>
     <use xlink:href="#CMR17-6e" transform="translate(227.13132 0)scale(0.996264)"/>
    </g>
   </g>
   <g id="text_2">
    <!-- Malignant -->
    <g transform="translate(264.008108 196.680492)scale(0.11 -0.11)">
     <defs>
      <path id="CMR17-4d" d="M 1338 4249 
C 1299 4345 1293 4352 1158 4352 
L 339 4352 
L 339 4185 
C 781 4185 851 4185 851 3898 
L 851 624 
C 851 465 851 166 339 166 
L 339 0 
C 486 12 755 12 915 12 
C 1075 12 1344 12 1491 0 
L 1491 166 
C 979 166 979 465 979 624 
L 979 4159 
L 986 4159 
L 2490 102 
C 2515 38 2528 0 2579 0 
C 2630 0 2643 38 2669 102 
L 4186 4191 
L 4192 4191 
L 4192 453 
C 4192 166 4122 166 3680 166 
L 3680 0 
C 3853 12 4198 12 4384 12 
C 4570 12 4922 12 5094 0 
L 5094 166 
C 4653 166 4582 166 4582 453 
L 4582 3898 
C 4582 4185 4653 4185 5094 4185 
L 5094 4352 
L 4282 4352 
C 4147 4352 4141 4345 4102 4249 
L 2720 516 
L 1338 4249 
z
" transform="scale(0.015625)"/>
      <path id="CMR17-61" d="M 2304 1656 
C 2304 2048 2304 2275 2035 2534 
C 1798 2751 1523 2816 1306 2816 
C 800 2816 435 2408 435 1977 
C 435 1740 627 1728 666 1728 
C 749 1728 896 1779 896 1958 
C 896 2118 774 2188 666 2188 
C 640 2188 608 2182 589 2176 
C 723 2594 1069 2713 1293 2713 
C 1613 2713 1965 2421 1965 1875 
L 1965 1632 
C 1587 1619 1133 1568 774 1373 
C 371 1147 256 822 256 576 
C 256 77 832 -64 1171 -64 
C 1523 -64 1850 135 1990 505 
C 2003 219 2182 -39 2464 -39 
C 2598 -39 2938 51 2938 563 
L 2938 926 
L 2822 926 
L 2822 557 
C 2822 161 2650 109 2566 109 
C 2304 109 2304 446 2304 732 
L 2304 1656 
z
M 1965 887 
C 1965 323 1568 38 1216 38 
C 896 38 646 278 646 576 
C 646 771 730 1114 1101 1322 
C 1408 1497 1760 1523 1965 1536 
L 1965 887 
z
" transform="scale(0.015625)"/>
      <path id="CMR17-6c" d="M 979 4416 
L 218 4345 
L 218 4179 
C 595 4179 653 4141 653 3835 
L 653 439 
C 653 198 627 166 218 166 
L 218 0 
C 371 12 653 12 813 12 
C 979 12 1261 12 1414 0 
L 1414 166 
C 1005 166 979 191 979 439 
L 979 4416 
z
" transform="scale(0.015625)"/>
      <path id="CMR17-74" d="M 966 2585 
L 1862 2585 
L 1862 2752 
L 966 2752 
L 966 3968 
L 851 3968 
C 838 3292 614 2700 70 2687 
L 70 2585 
L 627 2585 
L 627 778 
C 627 655 627 -64 1370 -64 
C 1747 -64 1965 308 1965 784 
L 1965 1151 
L 1850 1151 
L 1850 790 
C 1850 347 1677 51 1408 51 
C 1222 51 966 179 966 765 
L 966 2585 
z
" transform="scale(0.015625)"/>
     </defs>
     <use xlink:href="#CMR17-4d" transform="scale(0.996264)"/>
     <use xlink:href="#CMR17-61" transform="translate(84.686941 0)scale(0.996264)"/>
     <use xlink:href="#CMR17-6c" transform="translate(130.377418 0)scale(0.996264)"/>
     <use xlink:href="#CMR17-69" transform="translate(155.248476 0)scale(0.996264)"/>
     <use xlink:href="#CMR17-67" transform="translate(180.119535 0)scale(0.996264)"/>
     <use xlink:href="#CMR17-6e" transform="translate(225.810012 0)scale(0.996264)"/>
     <use xlink:href="#CMR17-61" transform="translate(276.705382 0)scale(0.996264)"/>
     <use xlink:href="#CMR17-6e" transform="translate(322.395859 0)scale(0.996264)"/>
     <use xlink:href="#CMR17-74" transform="translate(370.688775 0)scale(0.996264)"/>
    </g>
   </g>
   <g id="text_3">
    <!--  -->
    <g transform="translate(159.882394 179.37226)scale(0.11 -0.11)"/>
    <!-- HER2+ -->
    <g transform="translate(159.882394 190.63557)scale(0.11 -0.11)">
     <defs>
      <path id="CMR17-48" d="M 3590 3898 
C 3590 4185 3661 4185 4102 4185 
L 4102 4352 
C 3917 4339 3578 4339 3379 4339 
C 3181 4339 2842 4339 2656 4352 
L 2656 4185 
C 3098 4185 3168 4185 3168 3898 
L 3168 2342 
L 1261 2342 
L 1261 3898 
C 1261 4185 1331 4185 1773 4185 
L 1773 4352 
C 1587 4339 1248 4339 1050 4339 
C 851 4339 512 4339 326 4352 
L 326 4185 
C 768 4185 838 4185 838 3898 
L 838 452 
C 838 166 768 166 326 166 
L 326 0 
C 512 12 851 12 1050 12 
C 1248 12 1587 12 1773 0 
L 1773 166 
C 1331 166 1261 166 1261 452 
L 1261 2176 
L 3168 2176 
L 3168 452 
C 3168 166 3098 166 2656 166 
L 2656 0 
C 2842 12 3181 12 3379 12 
C 3578 12 3917 12 4102 0 
L 4102 166 
C 3661 166 3590 166 3590 452 
L 3590 3898 
z
" transform="scale(0.015625)"/>
      <path id="CMR17-45" d="M 3885 1614 
L 3770 1614 
C 3629 676 3546 166 2419 166 
L 1530 166 
C 1274 166 1261 198 1261 415 
L 1261 2176 
L 1862 2176 
C 2464 2176 2522 1959 2522 1429 
L 2637 1429 
L 2637 3086 
L 2522 3086 
C 2522 2558 2464 2342 1862 2342 
L 1261 2342 
L 1261 3924 
C 1261 4141 1274 4172 1530 4172 
L 2406 4172 
C 3398 4172 3514 3778 3603 2933 
L 3718 2933 
L 3565 4339 
L 326 4339 
L 326 4172 
C 768 4172 838 4172 838 3886 
L 838 453 
C 838 166 768 166 326 166 
L 326 0 
L 3654 0 
L 3885 1614 
z
" transform="scale(0.015625)"/>
      <path id="CMR17-52" d="M 2509 2156 
C 3117 2278 3629 2689 3629 3203 
C 3629 3806 2950 4352 2054 4352 
L 333 4352 
L 333 4185 
C 774 4185 845 4185 845 3896 
L 845 428 
C 845 140 774 140 333 140 
L 333 -26 
C 518 -13 851 -13 1050 -13 
C 1248 -13 1581 -13 1766 -26 
L 1766 140 
C 1325 140 1254 140 1254 428 
L 1254 2112 
L 2003 2112 
C 2368 2112 2573 1964 2662 1881 
C 2918 1632 2918 1459 2918 1024 
C 2918 595 2918 377 3110 160 
C 3354 -103 3680 -128 3821 -128 
C 4294 -128 4365 403 4365 512 
C 4365 550 4365 595 4307 595 
C 4256 595 4250 556 4250 531 
C 4218 115 4032 -26 3834 -26 
C 3482 -26 3443 377 3405 768 
C 3386 902 3373 998 3360 1139 
C 3322 1459 3270 1926 2509 2156 
z
M 1984 2214 
L 1254 2214 
L 1254 3935 
C 1254 4153 1267 4185 1523 4185 
L 1990 4185 
C 2522 4185 3142 3999 3142 3203 
C 3142 2374 2464 2214 1984 2214 
z
" transform="scale(0.015625)"/>
      <path id="CMR17-32" d="M 2669 990 
L 2554 990 
C 2490 537 2438 460 2413 422 
C 2381 371 1920 371 1830 371 
L 602 371 
C 832 620 1280 1073 1824 1596 
C 2214 1966 2669 2400 2669 3033 
C 2669 3788 2067 4224 1395 4224 
C 691 4224 262 3603 262 3027 
C 262 2777 448 2745 525 2745 
C 589 2745 781 2783 781 3007 
C 781 3206 614 3264 525 3264 
C 486 3264 448 3257 422 3244 
C 544 3788 915 4057 1306 4057 
C 1862 4057 2227 3616 2227 3033 
C 2227 2477 1901 1998 1536 1583 
L 262 147 
L 262 0 
L 2515 0 
L 2669 990 
z
" transform="scale(0.015625)"/>
      <path id="CMR17-2b" d="M 2413 1472 
L 4109 1472 
C 4198 1472 4307 1472 4307 1580 
C 4307 1696 4205 1696 4109 1696 
L 2413 1696 
L 2413 3385 
C 2413 3475 2413 3584 2304 3584 
C 2189 3584 2189 3481 2189 3385 
L 2189 1696 
L 493 1696 
C 403 1696 294 1696 294 1587 
C 294 1472 397 1472 493 1472 
L 2189 1472 
L 2189 -194 
C 2189 -282 2189 -391 2298 -391 
C 2413 -391 2413 -289 2413 -194 
L 2413 1472 
z
" transform="scale(0.015625)"/>
     </defs>
     <use xlink:href="#CMR17-48" transform="scale(0.996264)"/>
     <use xlink:href="#CMR17-45" transform="translate(69.07243 0)scale(0.996264)"/>
     <use xlink:href="#CMR17-52" transform="translate(131.65873 0)scale(0.996264)"/>
     <use xlink:href="#CMR17-32" transform="translate(199.449832 0)scale(0.996264)"/>
     <use xlink:href="#CMR17-2b" transform="translate(245.140309 0)scale(0.996264)"/>
    </g>
   </g>
   <g id="text_4">
    <!-- HER- -->
    <g transform="translate(184.766051 122.69179)scale(0.11 -0.11)">
     <defs>
      <path id="CMR17-2d" d="M 1632 1254 
L 1632 1536 
L 26 1536 
L 26 1254 
L 1632 1254 
z
" transform="scale(0.015625)"/>
     </defs>
     <use xlink:href="#CMR17-48" transform="scale(0.996264)"/>
     <use xlink:href="#CMR17-45" transform="translate(69.07243 0)scale(0.996264)"/>
     <use xlink:href="#CMR17-52" transform="translate(131.65873 0)scale(0.996264)"/>
     <use xlink:href="#CMR17-2d" transform="translate(199.449832 0)scale(0.996264)"/>
    </g>
   </g>
  </g>
 </g>
</svg>
