<?xml version="1.0" encoding="utf-8" standalone="no"?>
<!DOCTYPE svg PUBLIC "-//W3C//DTD SVG 1.1//EN"
  "http://www.w3.org/Graphics/SVG/1.1/DTD/svg11.dtd">
<svg xmlns:xlink="http://www.w3.org/1999/xlink" width="231.84pt" height="254.115447pt" viewBox="0 0 231.84 254.115447" xmlns="http://www.w3.org/2000/svg" version="1.1">
 <metadata>
  <rdf:RDF xmlns:dc="http://purl.org/dc/elements/1.1/" xmlns:cc="http://creativecommons.org/ns#" xmlns:rdf="http://www.w3.org/1999/02/22-rdf-syntax-ns#">
   <cc:Work>
    <dc:type rdf:resource="http://purl.org/dc/dcmitype/StillImage"/>
    <dc:date>2023-10-19T20:06:16.196267</dc:date>
    <dc:format>image/svg+xml</dc:format>
    <dc:creator>
     <cc:Agent>
      <dc:title>Matplotlib v3.5.1, https://matplotlib.org/</dc:title>
     </cc:Agent>
    </dc:creator>
   </cc:Work>
  </rdf:RDF>
 </metadata>
 <defs>
  <style type="text/css">*{stroke-linejoin: round; stroke-linecap: butt}</style>
 </defs>
 <g id="figure_1">
  <g id="patch_1">
   <path d="M 0 254.115447 
L 231.84 254.115447 
L 231.84 0 
L 0 0 
z
" style="fill: #ffffff"/>
  </g>
  <g id="axes_1">
   <g id="patch_2">
    <path d="M 115.92 28.944 
C 103.950822 28.944 92.109487 31.414703 81.13899 36.201082 
C 70.168492 40.987461 60.303186 47.98727 52.162078 56.761299 
C 44.020969 65.535328 37.77797 75.896146 33.824802 87.193654 
C 29.871633 98.491162 28.292744 110.484022 29.187203 122.419732 
C 30.081662 134.355442 33.430361 145.979031 39.023184 156.561165 
C 44.616007 167.143299 52.333479 176.457923 61.69136 183.920582 
C 71.049242 191.383242 81.847629 196.834519 93.408968 199.932368 
C 104.970307 203.030218 117.047623 203.708463 128.883115 201.924548 
L 115.92 115.92 
L 115.92 28.944 
z
" style="fill: #a385db; stroke: #ffffff; stroke-linejoin: miter"/>
   </g>
   <g id="patch_3">
    <path d="M 128.883115 201.924548 
C 150.57354 198.655238 170.244073 187.298446 183.920585 170.148637 
C 197.597096 152.998827 204.292037 131.29435 202.652796 109.42026 
C 201.013556 87.54617 191.1585 67.081945 175.078692 52.162069 
C 158.998884 37.242194 137.85541 28.943996 115.919984 28.944 
L 115.92 115.92 
L 128.883115 201.924548 
z
" style="fill: #0a888a; stroke: #ffffff; stroke-linejoin: miter"/>
   </g>
   <g id="matplotlib.axis_1"/>
   <g id="matplotlib.axis_2"/>
   <g id="text_1">
    <!-- 77 -->
    <g transform="translate(57.051833 123.306763)scale(0.14 -0.14)">
     <defs>
      <path id="CMR17-37" d="M 2886 3955 
L 2886 4096 
L 1382 4096 
C 634 4096 621 4166 595 4288 
L 480 4288 
L 294 3104 
L 410 3104 
C 429 3226 474 3552 550 3673 
C 589 3724 1062 3724 1171 3724 
L 2579 3724 
L 1869 2670 
C 1395 1961 1069 1003 1069 166 
C 1069 89 1069 -128 1299 -128 
C 1530 -128 1530 89 1530 172 
L 1530 466 
C 1530 1514 1709 2204 2003 2644 
L 2886 3955 
z
" transform="scale(0.015625)"/>
     </defs>
     <use xlink:href="#CMR17-37" transform="scale(0.996264)"/>
     <use xlink:href="#CMR17-37" transform="translate(45.690477 0)scale(0.996264)"/>
    </g>
   </g>
   <g id="text_2">
    <!-- 70 -->
    <g transform="translate(161.131189 115.50708)scale(0.14 -0.14)">
     <defs>
      <path id="CMR17-30" d="M 2688 2038 
C 2688 2430 2682 3099 2413 3613 
C 2176 4063 1798 4224 1466 4224 
C 1158 4224 768 4082 525 3620 
C 269 3137 243 2539 243 2038 
C 243 1671 250 1112 448 623 
C 723 -39 1216 -128 1466 -128 
C 1760 -128 2208 -7 2470 604 
C 2662 1048 2688 1568 2688 2038 
z
M 1466 -26 
C 1056 -26 813 328 723 816 
C 653 1196 653 1749 653 2109 
C 653 2604 653 3015 736 3407 
C 858 3954 1216 4121 1466 4121 
C 1728 4121 2067 3947 2189 3420 
C 2272 3054 2278 2623 2278 2109 
C 2278 1691 2278 1176 2202 797 
C 2067 96 1690 -26 1466 -26 
z
" transform="scale(0.015625)"/>
     </defs>
     <use xlink:href="#CMR17-37" transform="scale(0.996264)"/>
     <use xlink:href="#CMR17-30" transform="translate(45.690477 0)scale(0.996264)"/>
    </g>
   </g>
   <g id="legend_1">
    <g id="patch_4">
     <path d="M 29.354936 246.915447 
L 195.285064 246.915447 
Q 197.485064 246.915447 197.485064 244.715447 
L 197.485064 230.484553 
Q 197.485064 228.284553 195.285064 228.284553 
L 29.354936 228.284553 
Q 27.154936 228.284553 27.154936 230.484553 
L 27.154936 244.715447 
Q 27.154936 246.915447 29.354936 246.915447 
L 29.354936 246.915447 
z
" style="fill: none; opacity: 0.8; stroke: #cccccc; stroke-linejoin: miter"/>
    </g>
    <g id="patch_5">
     <path d="M 31.554936 240.384553 
L 53.554936 240.384553 
L 53.554936 232.684553 
L 31.554936 232.684553 
z
" style="fill: #a385db; stroke: #ffffff; stroke-linejoin: miter"/>
    </g>
    <g id="text_3">
     <!-- HER2 + -->
     <g transform="translate(62.354936 240.384553)scale(0.11 -0.11)">
      <defs>
       <path id="CMR17-48" d="M 3590 3898 
C 3590 4185 3661 4185 4102 4185 
L 4102 4352 
C 3917 4339 3578 4339 3379 4339 
C 3181 4339 2842 4339 2656 4352 
L 2656 4185 
C 3098 4185 3168 4185 3168 3898 
L 3168 2342 
L 1261 2342 
L 1261 3898 
C 1261 4185 1331 4185 1773 4185 
L 1773 4352 
C 1587 4339 1248 4339 1050 4339 
C 851 4339 512 4339 326 4352 
L 326 4185 
C 768 4185 838 4185 838 3898 
L 838 452 
C 838 166 768 166 326 166 
L 326 0 
C 512 12 851 12 1050 12 
C 1248 12 1587 12 1773 0 
L 1773 166 
C 1331 166 1261 166 1261 452 
L 1261 2176 
L 3168 2176 
L 3168 452 
C 3168 166 3098 166 2656 166 
L 2656 0 
C 2842 12 3181 12 3379 12 
C 3578 12 3917 12 4102 0 
L 4102 166 
C 3661 166 3590 166 3590 452 
L 3590 3898 
z
" transform="scale(0.015625)"/>
       <path id="CMR17-45" d="M 3885 1614 
L 3770 1614 
C 3629 676 3546 166 2419 166 
L 1530 166 
C 1274 166 1261 198 1261 415 
L 1261 2176 
L 1862 2176 
C 2464 2176 2522 1959 2522 1429 
L 2637 1429 
L 2637 3086 
L 2522 3086 
C 2522 2558 2464 2342 1862 2342 
L 1261 2342 
L 1261 3924 
C 1261 4141 1274 4172 1530 4172 
L 2406 4172 
C 3398 4172 3514 3778 3603 2933 
L 3718 2933 
L 3565 4339 
L 326 4339 
L 326 4172 
C 768 4172 838 4172 838 3886 
L 838 453 
C 838 166 768 166 326 166 
L 326 0 
L 3654 0 
L 3885 1614 
z
" transform="scale(0.015625)"/>
       <path id="CMR17-52" d="M 2509 2156 
C 3117 2278 3629 2689 3629 3203 
C 3629 3806 2950 4352 2054 4352 
L 333 4352 
L 333 4185 
C 774 4185 845 4185 845 3896 
L 845 428 
C 845 140 774 140 333 140 
L 333 -26 
C 518 -13 851 -13 1050 -13 
C 1248 -13 1581 -13 1766 -26 
L 1766 140 
C 1325 140 1254 140 1254 428 
L 1254 2112 
L 2003 2112 
C 2368 2112 2573 1964 2662 1881 
C 2918 1632 2918 1459 2918 1024 
C 2918 595 2918 377 3110 160 
C 3354 -103 3680 -128 3821 -128 
C 4294 -128 4365 403 4365 512 
C 4365 550 4365 595 4307 595 
C 4256 595 4250 556 4250 531 
C 4218 115 4032 -26 3834 -26 
C 3482 -26 3443 377 3405 768 
C 3386 902 3373 998 3360 1139 
C 3322 1459 3270 1926 2509 2156 
z
M 1984 2214 
L 1254 2214 
L 1254 3935 
C 1254 4153 1267 4185 1523 4185 
L 1990 4185 
C 2522 4185 3142 3999 3142 3203 
C 3142 2374 2464 2214 1984 2214 
z
" transform="scale(0.015625)"/>
       <path id="CMR17-32" d="M 2669 990 
L 2554 990 
C 2490 537 2438 460 2413 422 
C 2381 371 1920 371 1830 371 
L 602 371 
C 832 620 1280 1073 1824 1596 
C 2214 1966 2669 2400 2669 3033 
C 2669 3788 2067 4224 1395 4224 
C 691 4224 262 3603 262 3027 
C 262 2777 448 2745 525 2745 
C 589 2745 781 2783 781 3007 
C 781 3206 614 3264 525 3264 
C 486 3264 448 3257 422 3244 
C 544 3788 915 4057 1306 4057 
C 1862 4057 2227 3616 2227 3033 
C 2227 2477 1901 1998 1536 1583 
L 262 147 
L 262 0 
L 2515 0 
L 2669 990 
z
" transform="scale(0.015625)"/>
       <path id="CMR17-2b" d="M 2413 1472 
L 4109 1472 
C 4198 1472 4307 1472 4307 1580 
C 4307 1696 4205 1696 4109 1696 
L 2413 1696 
L 2413 3385 
C 2413 3475 2413 3584 2304 3584 
C 2189 3584 2189 3481 2189 3385 
L 2189 1696 
L 493 1696 
C 403 1696 294 1696 294 1587 
C 294 1472 397 1472 493 1472 
L 2189 1472 
L 2189 -194 
C 2189 -282 2189 -391 2298 -391 
C 2413 -391 2413 -289 2413 -194 
L 2413 1472 
z
" transform="scale(0.015625)"/>
      </defs>
      <use xlink:href="#CMR17-48" transform="scale(0.996264)"/>
      <use xlink:href="#CMR17-45" transform="translate(69.07243 0)scale(0.996264)"/>
      <use xlink:href="#CMR17-52" transform="translate(131.65873 0)scale(0.996264)"/>
      <use xlink:href="#CMR17-32" transform="translate(199.449832 0)scale(0.996264)"/>
      <use xlink:href="#CMR17-2b" transform="translate(275.216276 0)scale(0.996264)"/>
     </g>
    </g>
    <g id="patch_6">
     <path d="M 125.755318 240.384553 
L 147.755318 240.384553 
L 147.755318 232.684553 
L 125.755318 232.684553 
z
" style="fill: #0a888a; stroke: #ffffff; stroke-linejoin: miter"/>
    </g>
    <g id="text_4">
     <!-- HER2 - -->
     <g transform="translate(156.555318 240.384553)scale(0.11 -0.11)">
      <defs>
       <path id="CMR17-2d" d="M 1632 1254 
L 1632 1536 
L 26 1536 
L 26 1254 
L 1632 1254 
z
" transform="scale(0.015625)"/>
      </defs>
      <use xlink:href="#CMR17-48" transform="scale(0.996264)"/>
      <use xlink:href="#CMR17-45" transform="translate(69.07243 0)scale(0.996264)"/>
      <use xlink:href="#CMR17-52" transform="translate(131.65873 0)scale(0.996264)"/>
      <use xlink:href="#CMR17-32" transform="translate(199.449832 0)scale(0.996264)"/>
      <use xlink:href="#CMR17-2d" transform="translate(275.216276 0)scale(0.996264)"/>
     </g>
    </g>
   </g>
  </g>
 </g>
</svg>
